<svg width="139" height="80" viewBox="0 0 139 80" fill="none" xmlns="http://www.w3.org/2000/svg">
<path d="M54.8682 40.1356V39.895C54.8682 17.5143 74.3606 0.789062 100.476 0.789062C114.649 0.789062 126.112 5.074 135.099 12.1532L119.629 29.0924C114.193 24.9077 108.167 22.548 101.316 22.548C90.5674 22.548 82.766 30.055 82.766 40.2426V40.4565C82.766 51.0652 90.921 58.3583 102.494 58.3583C107.224 58.3583 109.861 57.6898 111.946 56.6403V49.14H97.7574V33.0564H137.803V67.8172C128.83 74.4619 116.307 79.0744 101.301 79.0744C75.5466 79.0476 54.8682 63.3986 54.8682 40.1356Z" fill="#0E101A" stroke="white" stroke-miterlimit="10"/>
<path d="M0.163086 2.3999H46.4705C57.9331 2.3999 65.1378 4.75294 69.9851 9.14483C71.6538 10.6826 72.9634 12.5101 73.8355 14.5179C74.7076 16.5256 75.1244 18.6725 75.0608 20.8298V21.0437C75.0608 29.9411 69.1674 35.4093 60.3273 38.1968C70.9576 40.9844 77.8086 46.1316 77.8086 56.4195V56.6334C77.8086 68.666 66.9427 77.4297 46.0285 77.4297H0.163086V2.3999ZM39.1479 31.873C45.0413 31.873 47.8923 30.0481 47.8923 26.7258V26.5252C47.8923 23.1828 44.9456 21.378 39.0522 21.378H27.0959V31.873H39.1479ZM40.9233 58.4583C46.9493 58.4583 50.0213 56.2056 50.0213 52.9902V52.7763C50.0213 49.5609 47.0746 47.3082 41.0412 47.3082H27.0959V58.465L40.9233 58.4583Z" fill="white"/>
</svg>
