<svg width="188" height="29" viewBox="0 0 188 29" fill="none" xmlns="http://www.w3.org/2000/svg">
<path d="M23.5749 23.724L22.9241 22.9647L22.9122 22.9749L22.9006 22.9855L23.5749 23.724ZM21.7749 21.744L22.4506 22.4812L22.4666 22.4665L22.482 22.4511L21.7749 21.744ZM21.5229 6.876L20.8585 7.62341L20.9104 7.66954L20.9682 7.70805L21.5229 6.876ZM23.3229 4.644L23.9814 3.89142L23.9717 3.88299L23.9619 3.87481L23.3229 4.644ZM14.2149 28.432C18.6487 28.432 21.6165 26.8662 24.2491 24.4625L22.9006 22.9855C20.5652 25.1178 18.061 26.432 14.2149 26.432V28.432ZM24.2256 24.4833C24.6617 24.1095 25.0429 23.486 25.0429 22.716H23.0429C23.0429 22.7628 23.0315 22.8086 23.0089 22.8538C22.9849 22.9019 22.9521 22.9408 22.9241 22.9647L24.2256 24.4833ZM25.0429 22.716C25.0429 21.4437 23.9471 20.348 22.6749 20.348V22.348C22.8426 22.348 23.0429 22.5483 23.0429 22.716H25.0429ZM22.6749 20.348C21.9855 20.348 21.4205 20.6842 21.0678 21.0369L22.482 22.4511C22.5142 22.4189 22.5554 22.3892 22.5967 22.3698C22.6364 22.3511 22.6627 22.348 22.6749 22.348V20.348ZM21.0991 21.0068C19.0873 22.8511 17.1234 23.804 14.2869 23.804V25.804C17.7143 25.804 20.1425 24.5969 22.4506 22.4812L21.0991 21.0068ZM14.2869 23.804C9.35963 23.804 5.53086 19.7465 5.53086 14.4H3.53086C3.53086 20.7175 8.12609 25.804 14.2869 25.804V23.804ZM5.53086 14.4V14.328H3.53086V14.4H5.53086ZM5.53086 14.328C5.53086 9.02204 9.3194 4.996 14.2869 4.996V2.996C8.09432 2.996 3.53086 8.04196 3.53086 14.328H5.53086ZM14.2869 4.996C17.0831 4.996 19.0519 6.01755 20.8585 7.62341L22.1872 6.12859C20.1058 4.27845 17.6826 2.996 14.2869 2.996V4.996ZM20.9682 7.70805C21.234 7.88525 21.7623 8.2 22.4589 8.2V6.2C22.3634 6.2 22.2438 6.15475 22.0776 6.04395L20.9682 7.70805ZM22.4589 8.2C23.7344 8.2 24.8989 7.13651 24.8989 5.796H22.8989C22.8989 5.86724 22.8652 5.96801 22.7675 6.06231C22.669 6.1575 22.5517 6.2 22.4589 6.2V8.2ZM24.8989 5.796C24.8989 4.89325 24.3866 4.24596 23.9814 3.89142L22.6644 5.39657C22.8352 5.54604 22.8989 5.69075 22.8989 5.796H24.8989ZM23.9619 3.87481C21.4785 1.81167 18.6673 0.368 14.3229 0.368V2.368C18.1144 2.368 20.4872 3.58832 22.6838 5.41319L23.9619 3.87481ZM14.3229 0.368C6.31108 0.368 0.57886 6.76424 0.57886 14.4H2.57886C2.57886 7.77976 7.50264 2.368 14.3229 2.368V0.368ZM0.57886 14.4V14.472H2.57886V14.4H0.57886ZM0.57886 14.472C0.57886 22.2248 6.35575 28.432 14.2149 28.432V26.432C7.52997 26.432 2.57886 21.1912 2.57886 14.472H0.57886ZM36.9494 28.432C43.1369 28.432 47.7054 23.5008 47.7054 17.712H45.7054C45.7054 22.4352 41.9939 26.432 36.9494 26.432V28.432ZM47.7054 17.712V17.64H45.7054V17.712H47.7054ZM47.7054 17.64C47.7054 11.8489 43.1707 6.992 37.0214 6.992V8.992C42.0321 8.992 45.7054 12.9191 45.7054 17.64H47.7054ZM37.0214 6.992C30.8291 6.992 26.3014 11.9281 26.3014 17.712H28.3014C28.3014 12.9839 31.9818 8.992 37.0214 8.992V6.992ZM26.3014 17.712V17.784H28.3014V17.712H26.3014ZM26.3014 17.784C26.3014 23.5701 30.7953 28.432 36.9494 28.432V26.432C31.9436 26.432 28.3014 22.5099 28.3014 17.784H26.3014ZM37.0214 23.948C33.7089 23.948 31.1454 21.2168 31.1454 17.712H29.1454C29.1454 22.1992 32.4859 25.948 37.0214 25.948V23.948ZM31.1454 17.712V17.64H29.1454V17.712H31.1454ZM31.1454 17.64C31.1454 14.1818 33.5524 11.44 36.9494 11.44V9.44C32.2825 9.44 29.1454 13.2502 29.1454 17.64H31.1454ZM36.9494 11.44C40.2624 11.44 42.8614 14.2076 42.8614 17.712H44.8614C44.8614 13.2244 41.4845 9.44 36.9494 9.44V11.44ZM42.8614 17.712V17.784H44.8614V17.712H42.8614ZM42.8614 17.784C42.8614 21.2281 40.4314 23.948 37.0214 23.948V25.948C41.6754 25.948 44.8614 22.1879 44.8614 17.784H42.8614ZM54.4989 11.628H53.4989V15.2019L55.3536 12.147L54.4989 11.628ZM50.7269 25.776C50.7269 27.1203 51.7866 28.18 53.1309 28.18V26.18C52.8911 26.18 52.7269 26.0157 52.7269 25.776H50.7269ZM53.1309 28.18C54.5091 28.18 55.4989 27.0857 55.4989 25.776H53.4989C53.4989 25.926 53.4465 26.0243 53.392 26.0809C53.3402 26.1346 53.2592 26.18 53.1309 26.18V28.18ZM55.4989 25.776V16.344H53.4989V25.776H55.4989ZM55.4989 16.344C55.4989 14.8301 56.0101 13.6314 56.8039 12.8161C57.5972 12.0012 58.7276 11.512 60.0789 11.512V9.512C58.2261 9.512 56.5665 10.1928 55.3708 11.4209C54.1756 12.6486 53.4989 14.3659 53.4989 16.344H55.4989ZM60.0789 11.512C61.4869 11.512 62.484 11.9685 63.1391 12.6941C63.8067 13.4336 64.2269 14.573 64.2269 16.128H66.2269C66.2269 14.227 65.711 12.5584 64.6236 11.3539C63.5237 10.1355 61.9468 9.512 60.0789 9.512V11.512ZM64.2269 16.128V25.776H66.2269V16.128H64.2269ZM64.2269 25.776C64.2269 27.1203 65.2866 28.18 66.6309 28.18V26.18C66.3911 26.18 66.2269 26.0157 66.2269 25.776H64.2269ZM66.6309 28.18C67.9561 28.18 68.9989 27.1032 68.9989 25.776H66.9989C66.9989 26.0328 66.8177 26.18 66.6309 26.18V28.18ZM68.9989 25.776V15.444H66.9989V25.776H68.9989ZM68.9989 15.444C68.9989 13.0353 68.282 10.9092 66.8542 9.37599C65.4177 7.83355 63.3549 6.992 60.8709 6.992V8.992C62.8868 8.992 64.388 9.66245 65.3906 10.739C66.4018 11.8248 66.9989 13.4247 66.9989 15.444H68.9989ZM60.8709 6.992C57.2429 6.992 55.007 8.86415 53.6441 11.109L55.3536 12.147C56.4387 10.3598 58.0908 8.992 60.8709 8.992V6.992ZM55.4989 11.628V9.612H53.4989V11.628H55.4989ZM55.4989 9.612C55.4989 8.26772 54.4391 7.208 53.0949 7.208V9.208C53.3346 9.208 53.4989 9.37228 53.4989 9.612H55.4989ZM53.0949 7.208C51.7532 7.208 50.7269 8.33768 50.7269 9.612H52.7269C52.7269 9.50564 52.7704 9.40024 52.847 9.32087C52.922 9.24308 53.0105 9.208 53.0949 9.208V7.208ZM50.7269 9.612V25.776H52.7269V9.612H50.7269ZM76.6825 11.628H75.6825V15.2019L77.5372 12.147L76.6825 11.628ZM72.9105 25.776C72.9105 27.1203 73.9702 28.18 75.3145 28.18V26.18C75.0747 26.18 74.9105 26.0157 74.9105 25.776H72.9105ZM75.3145 28.18C76.6927 28.18 77.6825 27.0857 77.6825 25.776H75.6825C75.6825 25.926 75.6301 26.0243 75.5756 26.0809C75.5238 26.1346 75.4428 26.18 75.3145 26.18V28.18ZM77.6825 25.776V16.344H75.6825V25.776H77.6825ZM77.6825 16.344C77.6825 14.8301 78.1937 13.6314 78.9875 12.8161C79.7808 12.0012 80.9112 11.512 82.2625 11.512V9.512C80.4097 9.512 78.7501 10.1928 77.5544 11.4209C76.3592 12.6486 75.6825 14.3659 75.6825 16.344H77.6825ZM82.2625 11.512C83.6705 11.512 84.6676 11.9685 85.3227 12.6941C85.9903 13.4336 86.4105 14.573 86.4105 16.128H88.4105C88.4105 14.227 87.8946 12.5584 86.8072 11.3539C85.7073 10.1355 84.1304 9.512 82.2625 9.512V11.512ZM86.4105 16.128V25.776H88.4105V16.128H86.4105ZM86.4105 25.776C86.4105 27.1203 87.4702 28.18 88.8145 28.18V26.18C88.5747 26.18 88.4105 26.0157 88.4105 25.776H86.4105ZM88.8145 28.18C90.1396 28.18 91.1825 27.1032 91.1825 25.776H89.1825C89.1825 26.0328 89.0013 26.18 88.8145 26.18V28.18ZM91.1825 25.776V15.444H89.1825V25.776H91.1825ZM91.1825 15.444C91.1825 13.0353 90.4656 10.9092 89.0378 9.37599C87.6013 7.83355 85.5385 6.992 83.0545 6.992V8.992C85.0704 8.992 86.5716 9.66245 87.5742 10.739C88.5854 11.8248 89.1825 13.4247 89.1825 15.444H91.1825ZM83.0545 6.992C79.4265 6.992 77.1906 8.86415 75.8277 11.109L77.5372 12.147C78.6223 10.3598 80.2744 8.992 83.0545 8.992V6.992ZM77.6825 11.628V9.612H75.6825V11.628H77.6825ZM77.6825 9.612C77.6825 8.26772 76.6227 7.208 75.2785 7.208V9.208C75.5182 9.208 75.6825 9.37228 75.6825 9.612H77.6825ZM75.2785 7.208C73.9368 7.208 72.9105 8.33768 72.9105 9.612H74.9105C74.9105 9.50564 74.954 9.40024 75.0306 9.32087C75.1056 9.24308 75.1941 9.208 75.2785 9.208V7.208ZM72.9105 9.612V25.776H74.9105V9.612H72.9105ZM97.75 16.668L96.7549 16.5695L96.6461 17.668H97.75V16.668ZM109.738 16.668V17.668H110.827L110.734 16.5832L109.738 16.668ZM111.25 24.624L110.592 23.8714L110.574 23.8865L110.558 23.9023L111.25 24.624ZM109.666 22.86L109.026 22.0918L109.007 22.1077L108.989 22.1245L109.666 22.86ZM97.75 18.72V17.72H96.647L96.7548 18.8177L97.75 18.72ZM98.7452 16.7665C99.0693 13.4925 101.21 11.332 103.798 11.332V9.332C99.9063 9.332 97.1507 12.5715 96.7549 16.5695L98.7452 16.7665ZM103.798 11.332C105.355 11.332 106.491 11.9386 107.288 12.8781C108.107 13.843 108.611 15.2128 108.742 16.7528L110.734 16.5832C110.578 14.7392 109.965 12.941 108.813 11.5839C107.639 10.2014 105.949 9.332 103.798 9.332V11.332ZM109.738 15.668H97.75V17.668H109.738V15.668ZM111.909 25.3766C112.398 24.9483 112.682 24.3563 112.682 23.724H110.682C110.682 23.7364 110.68 23.7533 110.669 23.7752C110.659 23.7972 110.637 23.8315 110.592 23.8714L111.909 25.3766ZM112.682 23.724C112.682 22.5044 111.675 21.536 110.458 21.536V23.536C110.609 23.536 110.682 23.6476 110.682 23.724H112.682ZM110.458 21.536C109.806 21.536 109.333 21.836 109.026 22.0918L110.306 23.6282C110.37 23.5749 110.41 23.5524 110.431 23.543C110.446 23.5362 110.451 23.536 110.458 23.536V21.536ZM108.989 22.1245C107.764 23.252 106.305 24.02 104.302 24.02V26.02C106.908 26.02 108.832 24.988 110.344 23.5955L108.989 22.1245ZM104.302 24.02C101.51 24.02 99.0915 22.1475 98.7453 18.6223L96.7548 18.8177C97.2006 23.3565 100.47 26.02 104.302 26.02V24.02ZM97.75 19.72H111.214V17.72H97.75V19.72ZM111.214 19.72C112.414 19.72 113.51 18.7682 113.51 17.424H111.51C111.51 17.5202 111.475 17.587 111.425 17.6349C111.37 17.6882 111.293 17.72 111.214 17.72V19.72ZM113.51 17.424C113.51 12.1042 110.082 6.992 103.87 6.992V8.992C108.674 8.992 111.51 12.8798 111.51 17.424H113.51ZM103.87 6.992C98.0806 6.992 93.942 11.8533 93.942 17.676H95.942C95.942 12.7707 99.3635 8.992 103.87 8.992V6.992ZM93.942 17.676V17.748H95.942V17.676H93.942ZM93.942 17.748C93.942 24.0502 98.5558 28.432 104.23 28.432V26.432C99.6803 26.432 95.942 22.9658 95.942 17.748H93.942ZM104.23 28.432C107.69 28.432 110.018 27.1912 111.942 25.3457L110.558 23.9023C108.954 25.4408 107.106 26.432 104.23 26.432V28.432ZM117.997 26.496L118.771 27.1292L118.776 27.1221L118.782 27.1149L117.997 26.496ZM123.613 19.368L124.398 18.7486L123.612 17.7528L122.827 18.7491L123.613 19.368ZM129.265 26.532L128.48 27.1514L128.485 27.1584L128.491 27.1652L129.265 26.532ZM131.389 24.876L132.178 24.2621L132.171 24.2529L132.164 24.244L131.389 24.876ZM125.341 17.46L124.566 16.8272L124.05 17.4593L124.566 18.092L125.341 17.46ZM131.137 10.368L130.377 9.71721L130.37 9.72611L130.362 9.73519L131.137 10.368ZM129.049 8.892L128.275 8.25876L128.269 8.26604L128.263 8.27344L129.049 8.892ZM123.721 15.66L122.935 16.2791L123.721 17.2759L124.506 16.2786L123.721 15.66ZM118.357 8.856L119.142 8.23689L119.136 8.22978L119.131 8.22276L118.357 8.856ZM116.269 10.512L117.044 9.88006L117.03 9.86355L117.016 9.84763L116.269 10.512ZM121.993 17.532L122.769 18.1626L123.282 17.5309L122.768 16.9001L121.993 17.532ZM115.909 25.02L116.616 25.7271L116.652 25.6906L116.685 25.6506L115.909 25.02ZM114.549 25.92C114.549 27.1375 115.518 28.18 116.809 28.18V26.18C116.66 26.18 116.549 26.0705 116.549 25.92H114.549ZM116.809 28.18C117.765 28.18 118.381 27.606 118.771 27.1292L117.223 25.8628C117.095 26.0187 117.003 26.0988 116.938 26.1396C116.888 26.1712 116.854 26.18 116.809 26.18V28.18ZM118.782 27.1149L124.398 19.9869L122.827 18.7491L117.211 25.8771L118.782 27.1149ZM122.828 19.9874L128.48 27.1514L130.05 25.9126L124.398 18.7486L122.828 19.9874ZM128.491 27.1652C128.93 27.7021 129.548 28.18 130.489 28.18V26.18C130.386 26.18 130.332 26.1592 130.29 26.135C130.235 26.1041 130.155 26.0405 130.039 25.8988L128.491 27.1652ZM130.489 28.18C131.743 28.18 132.785 27.2105 132.785 25.884H130.785C130.785 25.9985 130.745 26.0637 130.706 26.1016C130.665 26.1422 130.595 26.18 130.489 26.18V28.18ZM132.785 25.884C132.785 25.2308 132.516 24.696 132.178 24.2621L130.599 25.4899C130.766 25.704 130.785 25.8172 130.785 25.884H132.785ZM132.164 24.244L126.116 16.828L124.566 18.092L130.614 25.508L132.164 24.244ZM126.115 18.0928L131.911 11.0008L130.362 9.73519L124.566 16.8272L126.115 18.0928ZM131.896 11.0188C132.221 10.6394 132.497 10.1292 132.497 9.468H130.497C130.497 9.50921 130.49 9.53869 130.477 9.56795C130.463 9.60125 130.435 9.65004 130.377 9.71721L131.896 11.0188ZM132.497 9.468C132.497 8.19571 131.509 7.208 130.237 7.208V9.208C130.34 9.208 130.398 9.24354 130.43 9.27511C130.461 9.30667 130.497 9.36475 130.497 9.468H132.497ZM130.237 7.208C129.281 7.208 128.665 7.78204 128.275 8.25876L129.823 9.52524C129.95 9.36928 130.042 9.28923 130.107 9.24839C130.157 9.21676 130.191 9.208 130.237 9.208V7.208ZM128.263 8.27344L122.935 15.0414L124.506 16.2786L129.834 9.51056L128.263 8.27344ZM124.506 15.0409L119.142 8.23689L117.571 9.47511L122.935 16.2791L124.506 15.0409ZM119.131 8.22276C118.691 7.68586 118.073 7.208 117.133 7.208V9.208C117.235 9.208 117.289 9.22883 117.332 9.25296C117.386 9.2839 117.467 9.34753 117.583 9.48924L119.131 8.22276ZM117.133 7.208C115.898 7.208 114.837 8.12311 114.837 9.504H116.837C116.837 9.36201 116.882 9.30417 116.908 9.27983C116.939 9.24977 117.007 9.208 117.133 9.208V7.208ZM114.837 9.504C114.837 10.1691 115.116 10.7199 115.521 11.1764L117.016 9.84763C116.846 9.65609 116.837 9.55893 116.837 9.504H114.837ZM115.494 11.1439L121.218 18.1639L122.768 16.9001L117.044 9.88006L115.494 11.1439ZM121.217 16.9014L115.133 24.3894L116.685 25.6506L122.769 18.1626L121.217 16.9014ZM115.202 24.3129C114.745 24.7698 114.549 25.3205 114.549 25.92H116.549C116.549 25.8415 116.56 25.8074 116.565 25.796C116.568 25.787 116.577 25.7655 116.616 25.7271L115.202 24.3129ZM136.051 3.024C136.051 4.54438 137.329 5.5 138.671 5.5V3.5C138.446 3.5 138.284 3.42421 138.189 3.33986C138.102 3.26204 138.051 3.16133 138.051 3.024H136.051ZM138.671 5.5C140.034 5.5 141.327 4.55777 141.327 3.024H139.327C139.327 3.16039 139.277 3.25835 139.19 3.33484C139.095 3.41845 138.923 3.5 138.671 3.5V5.5ZM141.327 3.024V2.556H139.327V3.024H141.327ZM141.327 2.556C141.327 1.81884 141.023 1.17239 140.504 0.723676C139.997 0.286273 139.34 0.079999 138.671 0.079999V2.08C138.939 2.08 139.109 2.16173 139.196 2.23732C139.271 2.30161 139.327 2.39315 139.327 2.556H141.327ZM138.671 0.079999C137.346 0.079999 136.051 0.984372 136.051 2.556H138.051C138.051 2.39228 138.108 2.29786 138.183 2.23236C138.269 2.15643 138.43 2.08 138.671 2.08V0.079999ZM136.051 2.556V3.024H138.051V2.556H136.051ZM136.303 25.776C136.303 27.1203 137.363 28.18 138.707 28.18V26.18C138.467 26.18 138.303 26.0157 138.303 25.776H136.303ZM138.707 28.18C140.085 28.18 141.075 27.0857 141.075 25.776H139.075C139.075 25.926 139.023 26.0243 138.968 26.0809C138.916 26.1346 138.835 26.18 138.707 26.18V28.18ZM141.075 25.776V9.612H139.075V25.776H141.075ZM141.075 9.612C141.075 8.26772 140.015 7.208 138.671 7.208V9.208C138.911 9.208 139.075 9.37228 139.075 9.612H141.075ZM138.671 7.208C137.329 7.208 136.303 8.33768 136.303 9.612H138.303C138.303 9.50564 138.347 9.40024 138.423 9.32087C138.498 9.24308 138.587 9.208 138.671 9.208V7.208ZM136.303 9.612V25.776H138.303V9.612H136.303ZM155.004 28.432C161.192 28.432 165.76 23.5008 165.76 17.712H163.76C163.76 22.4352 160.049 26.432 155.004 26.432V28.432ZM165.76 17.712V17.64H163.76V17.712H165.76ZM165.76 17.64C165.76 11.8489 161.225 6.992 155.076 6.992V8.992C160.087 8.992 163.76 12.9191 163.76 17.64H165.76ZM155.076 6.992C148.884 6.992 144.356 11.9281 144.356 17.712H146.356C146.356 12.9839 150.036 8.992 155.076 8.992V6.992ZM144.356 17.712V17.784H146.356V17.712H144.356ZM144.356 17.784C144.356 23.5701 148.85 28.432 155.004 28.432V26.432C149.998 26.432 146.356 22.5099 146.356 17.784H144.356ZM155.076 23.948C151.764 23.948 149.2 21.2168 149.2 17.712H147.2C147.2 22.1992 150.541 25.948 155.076 25.948V23.948ZM149.2 17.712V17.64H147.2V17.712H149.2ZM149.2 17.64C149.2 14.1818 151.607 11.44 155.004 11.44V9.44C150.337 9.44 147.2 13.2502 147.2 17.64H149.2ZM155.004 11.44C158.317 11.44 160.916 14.2076 160.916 17.712H162.916C162.916 13.2244 159.539 9.44 155.004 9.44V11.44ZM160.916 17.712V17.784H162.916V17.712H160.916ZM160.916 17.784C160.916 21.2281 158.486 23.948 155.076 23.948V25.948C159.73 25.948 162.916 22.1879 162.916 17.784H160.916ZM172.554 11.628H171.554V15.2019L173.408 12.147L172.554 11.628ZM168.782 25.776C168.782 27.1203 169.841 28.18 171.186 28.18V26.18C170.946 26.18 170.782 26.0157 170.782 25.776H168.782ZM171.186 28.18C172.564 28.18 173.554 27.0857 173.554 25.776H171.554C171.554 25.926 171.501 26.0243 171.447 26.0809C171.395 26.1346 171.314 26.18 171.186 26.18V28.18ZM173.554 25.776V16.344H171.554V25.776H173.554ZM173.554 16.344C173.554 14.8301 174.065 13.6314 174.859 12.8161C175.652 12.0012 176.782 11.512 178.134 11.512V9.512C176.281 9.512 174.621 10.1928 173.426 11.4209C172.23 12.6486 171.554 14.3659 171.554 16.344H173.554ZM178.134 11.512C179.542 11.512 180.539 11.9685 181.194 12.6941C181.861 13.4336 182.282 14.573 182.282 16.128H184.282C184.282 14.227 183.766 12.5584 182.678 11.3539C181.578 10.1355 180.001 9.512 178.134 9.512V11.512ZM182.282 16.128V25.776H184.282V16.128H182.282ZM182.282 25.776C182.282 27.1203 183.341 28.18 184.686 28.18V26.18C184.446 26.18 184.282 26.0157 184.282 25.776H182.282ZM184.686 28.18C186.011 28.18 187.054 27.1032 187.054 25.776H185.054C185.054 26.0328 184.872 26.18 184.686 26.18V28.18ZM187.054 25.776V15.444H185.054V25.776H187.054ZM187.054 15.444C187.054 13.0353 186.337 10.9092 184.909 9.37599C183.472 7.83355 181.41 6.992 178.926 6.992V8.992C180.942 8.992 182.443 9.66245 183.445 10.739C184.456 11.8248 185.054 13.4247 185.054 15.444H187.054ZM178.926 6.992C175.298 6.992 173.062 8.86415 171.699 11.109L173.408 12.147C174.493 10.3598 176.146 8.992 178.926 8.992V6.992ZM173.554 11.628V9.612H171.554V11.628H173.554ZM173.554 9.612C173.554 8.26772 172.494 7.208 171.15 7.208V9.208C171.389 9.208 171.554 9.37228 171.554 9.612H173.554ZM171.15 7.208C169.808 7.208 168.782 8.33768 168.782 9.612H170.782C170.782 9.50564 170.825 9.40024 170.902 9.32087C170.977 9.24308 171.065 9.208 171.15 9.208V7.208ZM168.782 9.612V25.776H170.782V9.612H168.782Z" fill="#CF6679"/>
</svg>
