<svg width="615" height="615" viewBox="0 0 615 615" fill="none" xmlns="http://www.w3.org/2000/svg">
<path d="M582.362 169.55C595.67 156.855 603.988 138.972 603.988 119.171C603.988 80.7584 572.737 49.5075 534.324 49.5075C519.131 49.5075 505.068 54.4119 493.606 62.7C439.738 21.6824 375.4 0 307.5 0C226.784 0 150.522 31.0395 92.7617 87.3997C89.2002 90.8747 89.1306 96.579 92.6055 100.139C94.3713 101.948 96.7112 102.856 99.0546 102.856C101.324 102.856 103.594 102.005 105.345 100.295C159.72 47.2385 231.514 18.0176 307.5 18.0176C370.425 18.0176 430.09 37.8021 480.304 75.2474C470.534 87.2411 464.663 102.531 464.663 119.171C464.663 157.583 495.913 188.834 534.326 188.834C546.373 188.834 557.714 185.758 567.61 180.352C587.085 220.072 596.982 262.813 596.982 307.5C596.982 384.824 566.871 457.519 512.195 512.195C457.519 566.871 384.824 596.982 307.5 596.982C230.176 596.982 157.481 566.871 102.805 512.195C48.1286 457.519 18.0176 384.824 18.0176 307.5C18.0176 240.774 40.0771 178.079 81.8118 126.195C84.9301 122.318 84.3151 116.648 80.4389 113.53C76.5615 110.411 70.8908 111.027 67.7737 114.903C46.2727 141.631 29.5236 171.483 17.9888 203.629C6.0527 236.893 0 271.841 0 307.5C0 389.636 31.986 466.857 90.0639 524.935C148.143 583.015 225.364 615 307.5 615C389.636 615 466.856 583.015 524.936 524.935C583.014 466.857 615 389.636 615 307.5C615 258.956 604.003 212.563 582.362 169.55ZM482.679 119.171C482.679 90.6933 505.847 67.5251 534.324 67.5251C562.802 67.5251 585.97 90.6933 585.97 119.171C585.97 147.648 562.802 170.816 534.324 170.816C505.847 170.816 482.679 147.648 482.679 119.171Z" fill="#9887BF"/>
<path d="M552.495 110.163H543.333V101C543.333 96.0247 539.299 91.9912 534.324 91.9912C529.349 91.9912 525.315 96.0247 525.315 101V110.163H516.153C511.177 110.163 507.144 114.196 507.144 119.171C507.144 124.147 511.177 128.18 516.153 128.18H525.315V137.343C525.315 142.318 529.349 146.351 534.324 146.351C539.299 146.351 543.333 142.318 543.333 137.343V128.18H552.495C557.47 128.18 561.504 124.147 561.504 119.171C561.504 114.196 557.47 110.163 552.495 110.163Z" fill="#9887BF"/>
<path d="M307.319 203.787C307.319 170.304 280.08 143.065 246.597 143.065C213.114 143.065 185.875 170.304 185.875 203.787C185.875 237.27 213.114 264.509 246.597 264.509C280.08 264.509 307.319 237.269 307.319 203.787ZM203.893 203.787C203.893 180.239 223.049 161.083 246.597 161.083C270.145 161.083 289.301 180.239 289.301 203.787C289.301 227.334 270.145 246.491 246.597 246.491C223.049 246.491 203.893 227.334 203.893 203.787Z" fill="#9887BF"/>
<path d="M117.019 394.939C115.912 402.144 118.016 409.465 122.789 415.028C127.622 420.66 134.651 423.89 142.069 423.89H247.235C252.21 423.89 256.244 419.856 256.244 414.881C256.244 409.906 252.21 405.872 247.235 405.872H142.069C139.913 405.872 137.868 404.932 136.462 403.293C135.67 402.372 134.407 400.415 134.828 397.673C138.881 371.267 152.304 347.037 172.622 329.447C193.144 311.681 219.415 301.898 246.596 301.898C281.817 301.898 315.218 318.504 336.557 346.46C320.794 361.891 310.318 382.691 308.129 405.872H283.27C278.295 405.872 274.262 409.906 274.262 414.881C274.262 419.856 278.295 423.89 283.27 423.89H472.29C480.091 423.89 487.347 420.381 492.199 414.263C496.988 408.223 498.732 400.479 496.985 393.015C492.136 372.302 480.283 353.52 463.606 340.13C446.669 326.53 425.357 319.041 403.596 319.041C383.999 319.041 365.76 324.964 350.554 335.099C325.807 302.954 287.246 283.879 246.595 283.879C215.083 283.879 184.624 295.224 160.829 315.823C137.28 336.21 121.72 364.308 117.019 394.939ZM479.442 397.122C480.108 399.964 478.875 402.067 478.081 403.069C476.667 404.85 474.557 405.874 472.29 405.874H326.229C330.743 367.189 363.73 337.06 403.596 337.06C439.976 337.058 471.165 361.757 479.442 397.122Z" fill="#9887BF"/>
<path d="M449.418 255.853C449.418 230.59 428.865 210.037 403.601 210.037C378.338 210.037 357.784 230.59 357.784 255.853C357.784 281.116 378.337 301.67 403.601 301.67C428.865 301.67 449.418 281.116 449.418 255.853ZM375.802 255.853C375.802 240.525 388.272 228.055 403.601 228.055C418.93 228.055 431.4 240.525 431.4 255.853C431.4 271.182 418.93 283.652 403.601 283.652C388.272 283.652 375.802 271.182 375.802 255.853Z" fill="#9887BF"/>
</svg>
