<svg width="512" height="512" viewBox="0 0 512 512" fill="none" xmlns="http://www.w3.org/2000/svg">
<path d="M403.8 334.5L373.8 325.7L308.4 283V273.2C327.3 258.9 340.3 237.1 342.7 212.1C352.2 210.6 359.5 202.3 359.5 192.4V165.5C359.5 165.4 359.5 165.3 359.5 165.2V131.1C363.3 128.4 365.7 124 365.7 119V87.7998L410.8 80.0998C418.2 78.7998 423.5 72.8998 424.1 65.3998C424.6 57.8998 420.2 51.2998 413 48.9998L260.8 0.799805C257.6 -0.200195 254.3 -0.200195 251.1 0.799805L99 49.0998C91.8 51.3998 87.4 57.9998 87.9 65.4998C88.2 70.2998 90.5 74.3998 94 77.0998V117.9H93.6C85 117.9 78.1 124.9 78.1 133.4V153.6L68.1 212.5C66.4 222.7 74.2 232 84.6 232H118.5C128.8 232 136.7 222.7 135 212.5L125 153.6V133.4C125 124.8 118 117.9 109.5 117.9H109.1V81.4998L146.4 87.8998V119C146.4 123.9 148.8 128.3 152.6 131V165.4V192.3C152.6 202.2 159.9 210.5 169.4 212C171.8 237 184.8 258.8 203.7 273.1V282.9L138.3 325.6L108.3 334.4C76.2 343.8 53.5 373.3 53.5 407.6V430C53.5 434.1 56.9 437.5 61 437.5C65.1 437.5 68.5 434.1 68.5 430V407.6C68.5 380.6 86.6 356.4 112.5 348.8L140.5 340.6L252.3 407C254.6 408.3 257.6 408.4 260 407L371.8 340.6L399.8 348.8C425.7 356.4 443.8 380.6 443.8 407.6V480C443.8 489.3 436.2 496.9 426.9 496.9H393.8V464.6C393.8 460.5 390.4 457.1 386.3 457.1C382.2 457.1 378.8 460.5 378.8 464.6V497H133.3V464.7C133.3 460.6 129.9 457.2 125.8 457.2C121.7 457.2 118.3 460.6 118.3 464.7V497H85.3C76 497 68.5 489.4 68.5 480.1V465.1C68.5 461 65.1 457.6 61 457.6C56.9 457.6 53.5 461 53.5 465.1V480.1C53.5 497.7 67.8 511.9 85.3 511.9H426.8C444.4 511.9 458.6 497.6 458.6 480.1V407.7C458.6 374.2 436.7 344.2 403.8 334.5ZM118.5 217H84.6C83.6 217 82.8 216.1 82.9 215L92 161.8H111.2L120.3 215C120.4 216 119.6 217 118.5 217ZM110 133.4V146.8H93.1V133.4C93.1 133.1 93.3 132.9 93.6 132.9H109.3C109.7 132.8 110 133.1 110 133.4ZM229.2 373.2L232.2 377.8L155.6 332.3L204.2 300.6C206.4 326.4 214.9 351.3 229.2 373.2ZM229.1 340.8C246.8 343.3 265.2 343.3 282.8 340.8C279.4 349.2 275.2 357.3 270.2 365L256 386.9L241.7 365C236.7 357.3 232.5 349.2 229.1 340.8ZM282.8 373.2C297.1 351.3 305.6 326.4 307.8 300.5L356.4 332.2L279.8 377.7L282.8 373.2ZM326.7 133.9H344.5V158H335.7C330.8 158 326.7 154 326.7 149V133.9ZM103.6 63.3998L255.7 14.9998C255.9 14.8998 256.1 14.8998 256.3 14.9998L408.4 63.3998C408.7 63.4998 409.1 63.5998 409.1 64.3998C409 65.1998 408.6 65.2998 408.3 65.2998L358 73.8998L339.1 71.5998C335 71.0998 331.2 73.9998 330.7 78.0998C330.2 82.1998 333.1 85.9998 337.2 86.4998L350.6 88.1998V118.9H161.3V88.0998L238.9 78.4998C250.2 77.0998 261.7 77.0998 273 78.4998L302.4 82.0998C306.5 82.5998 310.3 79.6998 310.8 75.5998C311.3 71.4998 308.4 67.6998 304.3 67.1998L274.9 63.5998C262.4 62.0998 249.7 62.0998 237.2 63.5998L154 73.8998L103.7 65.2998C103.4 65.1998 102.9 65.1998 102.9 64.3998C102.8 63.6998 103.3 63.4998 103.6 63.3998ZM167.5 158V133.9H185.3V149C185.3 153.9 181.3 158 176.3 158H167.5ZM184 208.2C183.6 202.1 178.5 197.3 172.4 197.3C169.7 197.3 167.5 195.1 167.5 192.4V173H176.3C189.5 173 200.3 162.3 200.3 149V133.9H311.7V149C311.7 162.2 322.4 173 335.7 173H344.5V192.4C344.5 195.1 342.3 197.3 339.6 197.3C333.5 197.3 328.4 202.1 328 208.2C325.6 246.1 294 275.7 256 275.7C218 275.7 186.4 246.1 184 208.2ZM256 290.8C269.3 290.8 282 287.8 293.4 282.3V287.1C293.4 299.9 291.7 312.6 288.3 324.8C267.9 328.7 244.9 328.8 223.7 324.8C220.4 312.6 218.6 300 218.6 287.1C218.6 286.9 218.6 286.8 218.6 286.6V286.5V282.3C230 287.7 242.6 290.8 256 290.8Z" fill="#9887BF"/>
</svg>
