<?xml version="1.0" encoding="utf-8"?>
<!-- Generator: Adobe Illustrator 23.0.1, SVG Export Plug-In . SVG Version: 6.00 Build 0)  -->
<svg version="1.1" id="Calque_1" xmlns="http://www.w3.org/2000/svg" xmlns:xlink="http://www.w3.org/1999/xlink" x="0px" y="0px"
	 viewBox="0 0 405.1 512" style="enable-background:new 0 0 405.1 512;" xml:space="preserve">
<style type="text/css">
	.st0{fill:#9887BF;}
</style>
<path class="st0" d="M350.3,334.5l-30-8.8L254.9,283v-9.8c18.9-14.3,31.9-36.1,34.3-61.1c9.5-1.5,16.8-9.8,16.8-19.7v-26.9
	c0-0.1,0-0.2,0-0.3v-34.1c3.8-2.7,6.2-7.1,6.2-12.1V87.8l45.1-7.7c7.4-1.3,12.7-7.2,13.3-14.7c0.5-7.5-3.9-14.1-11.1-16.4L207.3,0.8
	c-3.2-1-6.5-1-9.7,0L45.5,49.1c-7.2,2.3-11.6,8.9-11.1,16.4c0.3,4.8,2.6,8.9,6.1,11.6v40.8h-0.4c-8.6,0-15.5,7-15.5,15.5v20.2
	l-10,58.9c-1.7,10.2,6.1,19.5,16.5,19.5H65c10.3,0,18.2-9.3,16.5-19.5l-10-58.9v-20.2c0-8.6-7-15.5-15.5-15.5h-0.4V81.5l37.3,6.4
	V119c0,4.9,2.4,9.3,6.2,12v34.4v26.9c0,9.9,7.3,18.2,16.8,19.7c2.4,25,15.4,46.8,34.3,61.1v9.8l-65.4,42.7l-30,8.8
	C22.7,343.8,0,373.3,0,407.6V430c0,4.1,3.4,7.5,7.5,7.5s7.5-3.4,7.5-7.5v-22.4c0-27,18.1-51.2,44-58.8l28-8.2L198.8,407
	c2.3,1.3,5.3,1.4,7.7,0l111.8-66.4l28,8.2c25.9,7.6,44,31.8,44,58.8V480c0,9.3-7.6,16.9-16.9,16.9h-33.1v-32.3
	c0-4.1-3.4-7.5-7.5-7.5c-4.1,0-7.5,3.4-7.5,7.5V497H79.8v-32.3c0-4.1-3.4-7.5-7.5-7.5c-4.1,0-7.5,3.4-7.5,7.5V497h-33
	c-9.3,0-16.8-7.6-16.8-16.9v-15c0-4.1-3.4-7.5-7.5-7.5S0,461,0,465.1v15c0,17.6,14.3,31.8,31.8,31.8h341.5
	c17.6,0,31.8-14.3,31.8-31.8v-72.4C405.1,374.2,383.2,344.2,350.3,334.5z M65,217H31.1c-1,0-1.8-0.9-1.7-2l9.1-53.2h19.2l9.1,53.2
	C66.9,216,66.1,217,65,217z M56.5,133.4v13.4H39.6v-13.4c0-0.3,0.2-0.5,0.5-0.5h15.7C56.2,132.8,56.5,133.1,56.5,133.4z
	 M175.7,373.2l3,4.6l-76.6-45.5l48.6-31.7C152.9,326.4,161.4,351.3,175.7,373.2z M175.6,340.8c17.7,2.5,36.1,2.5,53.7,0
	c-3.4,8.4-7.6,16.5-12.6,24.2l-14.2,21.9L188.2,365C183.2,357.3,179,349.2,175.6,340.8z M229.3,373.2c14.3-21.9,22.8-46.8,25-72.7
	l48.6,31.7l-76.6,45.5L229.3,373.2z M273.2,133.9H291V158h-8.8c-4.9,0-9-4-9-9V133.9z M50.1,63.4L202.2,15c0.2-0.1,0.4-0.1,0.6,0
	l152.1,48.4c0.3,0.1,0.7,0.2,0.7,1c-0.1,0.8-0.5,0.9-0.8,0.9l-50.3,8.6l-18.9-2.3c-4.1-0.5-7.9,2.4-8.4,6.5s2.4,7.9,6.5,8.4
	l13.4,1.7v30.7H107.8V88.1l77.6-9.6c11.3-1.4,22.8-1.4,34.1,0l29.4,3.6c4.1,0.5,7.9-2.4,8.4-6.5s-2.4-7.9-6.5-8.4l-29.4-3.6
	c-12.5-1.5-25.2-1.5-37.7,0l-83.2,10.3l-50.3-8.6c-0.3-0.1-0.8-0.1-0.8-0.9C49.3,63.7,49.8,63.5,50.1,63.4z M114,158v-24.1h17.8V149
	c0,4.9-4,9-9,9H114z M130.5,208.2c-0.4-6.1-5.5-10.9-11.6-10.9c-2.7,0-4.9-2.2-4.9-4.9V173h8.8c13.2,0,24-10.7,24-24v-15.1h111.4
	V149c0,13.2,10.7,24,24,24h8.8v19.4c0,2.7-2.2,4.9-4.9,4.9c-6.1,0-11.2,4.8-11.6,10.9c-2.4,37.9-34,67.5-72,67.5
	S132.9,246.1,130.5,208.2z M202.5,290.8c13.3,0,26-3,37.4-8.5v4.8c0,12.8-1.7,25.5-5.1,37.7c-20.4,3.9-43.4,4-64.6,0
	c-3.3-12.2-5.1-24.8-5.1-37.7c0-0.2,0-0.3,0-0.5v-0.1v-4.2C176.5,287.7,189.1,290.8,202.5,290.8z"/>
</svg>
