<svg width="482" height="482" viewBox="0 0 482 482" fill="none" xmlns="http://www.w3.org/2000/svg">
<path d="M321.917 309.117C310.497 309.117 301.206 301.076 301.206 291.192C301.206 281.307 310.497 273.266 321.917 273.266C333.337 273.266 342.628 281.307 342.628 291.192C342.628 296.391 346.843 300.606 352.042 300.606C357.24 300.606 361.456 296.391 361.456 291.192C361.456 273.941 348.602 259.436 331.331 255.499V250.603C331.331 245.404 327.115 241.188 321.917 241.188C316.718 241.188 312.503 245.404 312.503 250.603V255.499C295.232 259.436 282.378 273.941 282.378 291.192C282.378 311.458 300.115 327.945 321.917 327.945C333.337 327.945 342.628 335.987 342.628 345.872C342.628 355.756 333.337 363.798 321.917 363.798C310.497 363.798 301.206 355.756 301.206 345.872C301.206 340.673 296.99 336.458 291.792 336.458C286.594 336.458 282.378 340.673 282.378 345.872C282.378 363.123 295.232 377.628 312.503 381.565V385.632C312.503 390.83 316.718 395.046 321.917 395.046C327.115 395.046 331.331 390.83 331.331 385.632V381.565C348.602 377.628 361.456 363.123 361.456 345.872C361.456 325.605 343.719 309.117 321.917 309.117Z" fill="#9887BF"/>
<path d="M425.027 253.121C412.729 233.959 395.404 218.625 374.924 208.78C370.236 206.526 364.611 208.499 362.36 213.186C360.107 217.872 362.079 223.496 366.765 225.749C402.455 242.905 425.515 279.562 425.515 319.137C425.515 336.071 421.34 352.865 413.445 367.705C411.003 372.294 412.743 377.995 417.334 380.437C418.742 381.187 420.256 381.543 421.747 381.543C425.115 381.543 428.374 379.73 430.066 376.549C439.406 358.997 444.343 339.144 444.343 319.137C444.343 295.64 437.663 272.811 425.027 253.121Z" fill="#9887BF"/>
<path d="M336.715 196.755L336.081 196.754C330.883 196.754 326.667 200.969 326.667 206.168C326.667 211.367 330.883 215.582 336.081 215.582L336.626 215.583C336.641 215.583 336.655 215.583 336.671 215.583C341.85 215.583 346.06 211.397 346.084 206.213C346.108 201.014 341.913 196.779 336.715 196.755Z" fill="#9887BF"/>
<path d="M277.157 412.525C241.468 395.368 218.408 358.711 218.408 319.137C218.408 302.203 222.582 285.409 230.478 270.569C232.92 265.98 231.179 260.278 226.589 257.836C222.001 255.394 216.298 257.135 213.856 261.725C204.517 279.278 199.58 299.13 199.58 319.137C199.58 342.634 206.259 365.462 218.896 385.153C231.193 404.315 248.519 419.649 268.999 429.495C270.314 430.128 271.704 430.426 273.072 430.426C276.578 430.426 279.942 428.459 281.563 425.089C283.814 420.403 281.843 414.778 277.157 412.525Z" fill="#9887BF"/>
<path d="M307.841 422.691L307.296 422.689C302.073 422.68 297.863 426.859 297.84 432.059C297.815 437.259 302.012 441.493 307.211 441.518L307.841 441.519C313.04 441.519 317.255 437.304 317.255 432.105C317.255 426.907 313.04 422.691 307.841 422.691Z" fill="#9887BF"/>
<path d="M364.709 164.904C363.563 162.174 362.159 159.601 360.526 157.215H385.034C408.912 157.215 428.339 137.788 428.339 113.91C428.339 90.0322 408.912 70.6053 385.034 70.6053H309.647C314.439 63.6371 317.253 55.2068 317.253 46.1288C317.253 22.251 297.826 2.82422 273.949 2.82422H43.3046C19.4268 2.82422 0 22.251 0 46.1288C0 70.0066 19.4268 89.4334 43.3046 89.4334H118.692C113.9 96.4017 111.086 104.832 111.086 113.91C111.086 122.988 113.899 131.418 118.692 138.386H94.1404C70.2627 138.386 50.8358 157.813 50.8358 181.691C50.8358 195.405 57.2506 207.642 67.2304 215.582C57.2506 223.521 50.8358 235.759 50.8358 249.472C50.8358 263.186 57.2506 275.423 67.2304 283.363C57.2506 291.303 50.8358 303.54 50.8358 317.253C50.8358 330.967 57.2506 343.204 67.2304 351.144C57.2506 359.084 50.8358 371.321 50.8358 385.034C50.8358 408.912 70.2627 428.339 94.1404 428.339H205.085C234.312 459.6 275.89 479.176 321.961 479.176C410.207 479.176 482 407.382 482 319.137C482 245.692 432.266 183.652 364.709 164.904ZM385.034 89.4334C398.531 89.4334 409.511 100.414 409.511 113.91C409.511 127.406 398.531 138.386 385.034 138.386H324.785H154.39C140.893 138.386 129.914 127.406 129.914 113.91C129.914 100.414 140.893 89.4334 154.39 89.4334H385.034ZM43.3046 70.6053C29.8077 70.6053 18.8281 59.6248 18.8281 46.1288C18.8281 32.6328 29.8077 21.6523 43.3046 21.6523H273.949C287.446 21.6523 298.425 32.6328 298.425 46.1288C298.425 59.6248 287.446 70.6053 273.949 70.6053H43.3046ZM94.1404 157.215H324.785C328.577 157.215 332.208 158.096 335.465 159.673C331.012 159.3 326.51 159.098 321.961 159.098C277.767 159.098 237.701 177.106 208.711 206.168H94.1404C80.6445 206.168 69.6639 195.187 69.6639 181.691C69.6639 168.195 80.6445 157.215 94.1404 157.215ZM94.1404 224.996H192.625C181.939 239.637 173.676 256.151 168.429 273.949H94.1404C80.6435 273.949 69.6639 262.969 69.6639 249.472C69.6639 235.976 80.6435 224.996 94.1404 224.996ZM94.1404 292.777H164.106C162.678 301.356 161.923 310.159 161.923 319.137C161.923 326.806 162.477 334.346 163.525 341.73H94.1404C80.6435 341.73 69.6639 330.75 69.6639 317.253C69.6639 303.756 80.6435 292.777 94.1404 292.777ZM94.1404 409.511C80.6435 409.511 69.6639 398.531 69.6639 385.034C69.6639 371.538 80.6435 360.558 94.1404 360.558H167.369C172.119 378.269 179.836 394.774 189.956 409.511H94.1404ZM321.961 460.348C244.098 460.348 180.751 397.001 180.751 319.137C180.751 241.273 244.098 177.926 321.961 177.926C399.825 177.926 463.172 241.273 463.172 319.137C463.172 397.001 399.825 460.348 321.961 460.348Z" fill="#9887BF"/>
</svg>
