<svg width="72" height="72" viewBox="0 0 72 72" fill="none" xmlns="http://www.w3.org/2000/svg">
<g clip-path="url(#clip0)">
<path d="M35.944 0C24.2661 0 14.7656 9.50043 14.7656 21.1783V50.8217C14.7656 62.4996 24.2661 72 35.944 72C47.6219 72 57.1223 62.4996 57.1223 50.8217V21.1783C57.1223 9.50043 47.6219 0 35.944 0ZM52.8025 50.8217C52.8025 60.1172 45.2395 67.6802 35.944 67.6802C26.6484 67.6802 19.0854 60.1172 19.0854 50.8217V21.1783C19.0854 11.8828 26.6484 4.31982 35.944 4.31982C45.2395 4.31982 52.8025 11.8828 52.8025 21.1783V50.8217Z" fill="white"/>
<path d="M35.9446 14.3232C34.7515 14.3232 33.7847 15.29 33.7847 16.4832V26.4247C33.7847 27.6172 34.7515 28.5846 35.9446 28.5846C37.1371 28.5846 38.1045 27.6172 38.1045 26.4247V16.4832C38.1045 15.29 37.1377 14.3232 35.9446 14.3232Z" fill="white"/>
</g>
<defs>
<clipPath id="clip0">
<rect width="72" height="72" fill="white"/>
</clipPath>
</defs>
</svg>
