<svg width="29" height="29" viewBox="0 0 29 29" fill="none" xmlns="http://www.w3.org/2000/svg">
<path d="M17.5586 10.7617C17.2459 10.7617 16.9922 11.0155 16.9922 11.3281C16.9922 11.6408 17.2459 11.8945 17.5586 11.8945C17.8712 11.8945 18.125 11.6408 18.125 11.3281C18.125 11.0155 17.8712 10.7617 17.5586 10.7617Z" fill="#9887BF"/>
<path d="M28.3362 25.1325L20.7758 17.5721C22.0075 15.7169 22.6562 13.5685 22.6562 11.3281C22.6562 5.0818 17.5745 0 11.3281 0C5.0818 0 0 5.0818 0 11.3281C0 17.5745 5.0818 22.6562 11.3281 22.6562C13.5686 22.6562 15.717 22.0074 17.5721 20.7759L19.6619 22.8657C19.6622 22.8659 19.6625 22.8662 19.6628 22.8666L25.1325 28.3362C25.5606 28.7643 26.1294 29 26.7344 29C27.3394 29 27.9082 28.7643 28.3361 28.3364C28.7642 27.9086 29 27.3397 29 26.7344C29 26.1291 28.7642 25.5602 28.3362 25.1325ZM17.3057 19.5822C17.3058 19.5821 17.3057 19.5823 17.3057 19.5822C15.5574 20.8521 13.4904 21.5234 11.3281 21.5234C5.70643 21.5234 1.13281 16.9498 1.13281 11.3281C1.13281 5.70643 5.70643 1.13281 11.3281 1.13281C16.9498 1.13281 21.5234 5.70643 21.5234 11.3281C21.5234 13.4904 20.8522 15.5573 19.5823 17.3057C18.9469 18.181 18.181 18.9469 17.3057 19.5822ZM18.4941 20.0957C19.0803 19.6161 19.6162 19.0802 20.0957 18.4941L21.7026 20.101C21.214 20.6778 20.6778 21.214 20.101 21.7026L18.4941 20.0957ZM27.5352 27.5352C27.3211 27.7493 27.0367 27.8672 26.7344 27.8672C26.432 27.8672 26.1476 27.7493 25.9335 27.5352L20.9041 22.5058C21.4777 22.0135 22.0135 21.4778 22.5058 20.9042L27.5353 25.9338C27.7493 26.1475 27.8672 26.4318 27.8672 26.7344C27.8672 27.0369 27.7493 27.3212 27.5352 27.5352Z" fill="#9887BF"/>
<path d="M17.6756 8.89671C17.1878 7.62728 16.3386 6.54194 15.2196 5.75809C14.074 4.95549 12.7283 4.53125 11.3281 4.53125C11.0154 4.53125 10.7617 4.78489 10.7617 5.09766C10.7617 5.41043 11.0154 5.66406 11.3281 5.66406C13.656 5.66406 15.7818 7.12641 16.6181 9.30305C16.7047 9.52826 16.9193 9.66646 17.147 9.66646C17.2145 9.66646 17.2832 9.65428 17.35 9.62862C17.642 9.51642 17.7878 9.18875 17.6756 8.89671Z" fill="#9887BF"/>
</svg>
