<svg width="425" height="379" viewBox="0 0 425 379" fill="none" xmlns="http://www.w3.org/2000/svg">
<path d="M419.126 263.881L393.982 151.983C390.618 137.247 376.098 126.687 359.276 126.608H219.567V38.3503C219.567 17.4678 200.532 0.525391 177.071 0.525391C153.609 0.525391 134.574 17.4678 134.574 38.3503C134.574 52.2982 121.913 63.5669 106.242 63.5669C90.5716 63.5669 77.911 52.2982 77.911 38.3503V6.82954C77.911 3.36226 74.7238 0.525391 70.8282 0.525391C66.9327 0.525391 63.7454 3.36226 63.7454 6.82954V38.3503C63.7454 59.2328 82.7805 76.1752 106.242 76.1752C129.704 76.1752 148.739 59.2328 148.739 38.3503C148.739 24.4024 161.4 13.1337 177.071 13.1337C192.741 13.1337 205.402 24.4024 205.402 38.3503V126.608H65.6932C48.7829 126.608 34.3517 137.247 30.9873 151.983L5.84333 263.881C1.94778 281.218 0 298.791 0 316.442V316.6C0 331.336 5.84333 345.678 16.5561 356.946C27.1803 368.294 42.1428 375.78 58.5218 378.065C87.4728 382.084 116.158 369.397 130.058 346.387L153.255 308.089C157.416 301.155 165.561 296.82 174.414 296.82H250.555C259.408 296.82 267.554 301.155 271.715 308.089L294.911 346.387C308.545 368.767 336.168 381.454 364.5 378.302C398.94 374.44 424.969 347.884 424.969 316.521V316.442C424.969 298.791 423.021 281.139 419.126 263.881ZM162.905 139.217H262.064V164.433C262.064 174.835 252.503 183.346 240.816 183.346H184.153C172.467 183.346 162.905 174.835 162.905 164.433V139.217ZM97.3888 359.232C86.3219 365.063 73.3957 367.348 60.6466 365.615C34.1746 361.911 14.1656 340.871 14.1656 316.6V316.442C14.1656 299.579 16.0249 282.794 19.7434 266.324L20.8943 261.281L114.653 344.732C110.138 350.642 104.206 355.607 97.3888 359.232ZM284.198 302.1C277.558 291.068 264.632 284.212 250.555 284.212H174.414C160.337 284.212 147.411 291.068 140.771 302.1L121.825 333.385L24.2587 246.387L44.8874 154.425C46.9237 145.6 55.6001 139.217 65.6932 139.217H148.739V164.433C148.739 181.849 164.587 195.954 184.153 195.954H240.816C260.382 195.954 276.23 181.849 276.23 164.433V139.217H359.276C369.369 139.217 378.134 145.6 380.082 154.425L400.711 246.387L303.056 333.306L284.198 302.1ZM410.804 316.521C410.804 341.501 390.175 362.699 362.729 365.772C342.189 368.057 321.914 359.941 310.316 344.732L404.075 261.281L405.226 266.324C408.944 282.794 410.804 299.579 410.804 316.442V316.521Z" fill="#9887BF"/>
<path d="M134.574 202.257H113.325V183.344C113.325 179.877 110.138 177.04 106.242 177.04H77.9112C74.0156 177.04 70.8284 179.877 70.8284 183.344V202.257H49.5799C45.6843 202.257 42.4971 205.094 42.4971 208.561V233.777C42.4971 237.245 45.6843 240.082 49.5799 240.082H70.8284V258.994C70.8284 262.461 74.0156 265.298 77.9112 265.298H106.242C110.138 265.298 113.325 262.461 113.325 258.994V240.082H134.574C138.469 240.082 141.657 237.245 141.657 233.777V208.561C141.657 205.094 138.469 202.257 134.574 202.257ZM127.491 227.473H106.242C102.347 227.473 99.1597 230.31 99.1597 233.777V252.69H84.994V233.777C84.994 230.31 81.8067 227.473 77.9112 227.473H56.6627V214.865H77.9112C81.8067 214.865 84.994 212.028 84.994 208.561V189.648H99.1597V208.561C99.1597 212.028 102.347 214.865 106.242 214.865H127.491V227.473Z" fill="#9887BF"/>
<path d="M332.893 265.298C360.25 265.298 382.473 245.519 382.473 221.169C382.473 196.819 360.25 177.04 332.893 177.04C305.535 177.04 283.313 196.819 283.313 221.169C283.313 245.519 305.535 265.298 332.893 265.298ZM332.893 189.648C352.459 189.648 368.307 203.754 368.307 221.169C368.307 238.584 352.459 252.69 332.893 252.69C313.326 252.69 297.479 238.584 297.479 221.169C297.479 203.754 313.326 189.648 332.893 189.648Z" fill="#9887BF"/>
<path d="M184.153 271.602C172.378 271.602 162.905 263.17 162.905 252.69C162.905 242.209 172.378 233.777 184.153 233.777C195.928 233.777 205.402 242.209 205.402 252.69C205.402 263.092 195.84 271.602 184.153 271.602ZM184.153 246.386C180.258 246.386 177.07 249.222 177.07 252.69C177.07 256.157 180.258 258.994 184.153 258.994C188.049 258.994 191.236 256.157 191.236 252.69C191.236 249.222 188.049 246.386 184.153 246.386Z" fill="#9887BF"/>
<path d="M240.816 271.602C229.041 271.602 219.567 263.17 219.567 252.69C219.567 242.209 229.041 233.777 240.816 233.777C252.591 233.777 262.064 242.209 262.064 252.69C262.064 263.092 252.503 271.602 240.816 271.602ZM240.816 246.386C236.92 246.386 233.733 249.222 233.733 252.69C233.733 256.157 236.92 258.994 240.816 258.994C244.711 258.994 247.899 256.157 247.899 252.69C247.899 249.222 244.711 246.386 240.816 246.386Z" fill="#9887BF"/>
</svg>
