<svg width="615" height="615" viewBox="0 0 615 615" fill="none" xmlns="http://www.w3.org/2000/svg">
<g clip-path="url(#clip0)">
<path d="M299.265 253.846C292.631 253.846 287.254 259.224 287.254 265.858V361.869C287.254 367.718 291.466 372.716 297.232 373.706C298.088 373.854 298.745 373.967 309.462 373.967C314.605 373.967 322.069 373.941 332.981 373.88C339.614 373.843 344.963 368.435 344.925 361.801C344.888 355.19 339.518 349.857 332.915 349.857C332.892 349.857 332.87 349.857 332.847 349.857C325.442 349.899 317.508 349.929 311.278 349.936V265.858C311.277 259.224 305.899 253.846 299.265 253.846Z" fill="#9887BF"/>
<path d="M385.763 253.846C379.129 253.846 373.751 259.224 373.751 265.858V361.869C373.751 367.718 377.965 372.717 383.731 373.707C384.587 373.854 385.245 373.967 395.956 373.967C401.1 373.967 408.563 373.941 419.479 373.88C426.112 373.843 431.46 368.435 431.423 361.801C431.386 355.19 426.016 349.857 419.413 349.857C419.39 349.857 419.367 349.857 419.344 349.857C411.939 349.899 404.006 349.929 397.774 349.936V265.858C397.774 259.224 392.397 253.846 385.763 253.846Z" fill="#9887BF"/>
<path d="M165.456 361.949V265.858C165.456 259.224 160.079 253.846 153.445 253.846C146.811 253.846 141.434 259.224 141.434 265.858V300.244H98.9599V265.858C98.9599 259.224 93.5824 253.846 86.9484 253.846C80.3145 253.846 74.937 259.224 74.937 265.858V361.949C74.937 368.583 80.3145 373.961 86.9484 373.961C93.5824 373.961 98.9599 368.583 98.9599 361.949V324.267H141.434V361.949C141.434 368.583 146.811 373.961 153.445 373.961C160.079 373.961 165.456 368.583 165.456 361.949Z" fill="#9887BF"/>
<path d="M246.415 278.309C253.048 278.309 258.426 272.931 258.426 266.298C258.426 259.664 253.048 254.286 246.415 254.286H206.295C199.661 254.286 194.284 259.664 194.284 266.298V361.512C194.284 368.146 199.661 373.524 206.295 373.524H246.415C253.048 373.524 258.426 368.146 258.426 361.512C258.426 354.878 253.048 349.501 246.415 349.501H218.307V325.916H243.456C250.09 325.916 255.468 320.539 255.468 313.905C255.468 307.271 250.09 301.893 243.456 301.893H218.307V278.309H246.415Z" fill="#9887BF"/>
<path d="M486.659 373.961C519.775 373.961 546.716 347.019 546.716 313.903C546.716 280.788 519.775 253.846 486.659 253.846C453.543 253.846 426.602 280.788 426.602 313.903C426.602 347.019 453.543 373.961 486.659 373.961ZM486.659 277.869C506.528 277.869 522.693 294.034 522.693 313.903C522.693 333.773 506.528 349.938 486.659 349.938C466.79 349.938 450.625 333.773 450.625 313.903C450.625 294.034 466.79 277.869 486.659 277.869Z" fill="#9887BF"/>
<path d="M614.986 313.904C614.986 272.659 603.828 231.785 582.645 195.148C593.658 179.021 594.277 157.188 582.823 140.23C594.499 135.995 603.985 127.62 609.651 116.498C615.575 104.872 616.618 91.6342 612.586 79.224C604.436 54.1441 577.798 40.1316 552.649 47.3637C551.753 21.2088 530.196 0.205566 503.826 0.205566C477.456 0.205566 455.899 21.2076 455.003 47.3637C436.482 42.0402 417.166 48.2441 405.009 61.8939C373.661 52.8457 340.904 48.2513 307.493 48.2513C225.698 48.2513 148.717 75.6638 90.732 125.438C32.2231 175.664 0 242.595 0 313.904C0 373.788 22.489 430.311 65.0371 477.359C67.4082 479.981 70.6729 481.313 73.9496 481.313C76.8227 481.313 79.7043 480.288 82.0033 478.21C86.9232 473.76 87.3051 466.165 82.8549 461.244C44.3666 418.686 24.0229 367.736 24.0229 313.904C24.0229 180.669 151.187 72.2742 307.493 72.2742C337.046 72.2742 366.032 76.1154 393.843 83.6995C391.357 94.7716 392.782 106.259 397.999 116.499C403.666 127.622 413.153 135.995 424.828 140.231C410.179 161.918 415.274 191.58 436.607 207.08C457.942 222.581 487.727 218.259 503.825 197.626C513.395 209.892 527.798 216.393 542.392 216.392C549.791 216.391 557.241 214.715 564.13 211.275C581.702 243.192 590.963 278.414 590.963 313.904C590.963 386.133 553.439 454.022 488.015 500.161C483.573 503.294 481.788 509.02 483.663 514.121C490.593 532.975 501.272 549.771 515.405 564.042C523.458 572.175 532.449 579.285 542.157 585.199C500.06 598.709 453.255 586.873 422.646 554.895C419.898 552.024 417.27 548.99 414.837 545.878C411.786 541.977 406.652 540.348 401.91 541.776C371.611 550.905 339.846 555.533 307.494 555.533C257.495 555.533 208.343 544.276 165.352 522.981C159.405 520.035 152.202 522.469 149.257 528.412C146.312 534.357 148.744 541.562 154.688 544.507C200.977 567.436 253.815 579.556 307.494 579.556C339.473 579.556 370.942 575.332 401.156 566.994C402.504 568.529 403.886 570.035 405.293 571.506C424.019 591.067 447.756 604.708 473.939 610.951C484.694 613.516 495.645 614.794 506.582 614.792C521.492 614.792 536.372 612.417 550.664 607.69C559.556 604.75 565.717 597.142 566.74 587.836C567.755 578.615 563.443 569.936 555.487 565.183C547.134 560.193 539.392 554.121 532.475 547.137C522.897 537.465 515.237 526.393 509.628 514.131C576.717 463.594 614.986 391.118 614.986 313.904ZM558.451 70.7067C571.471 66.4763 585.507 73.6279 589.737 86.6483C591.788 92.9555 591.258 99.6831 588.247 105.592C585.236 111.501 580.104 115.884 573.797 117.933H573.796C569.717 119.258 564.564 119.832 559.088 119.592C559.238 117.933 559.327 116.258 559.327 114.562C559.327 100.579 554.119 87.7978 545.555 78.0277C549.85 74.6032 554.365 72.034 558.451 70.7067ZM503.825 146.04C486.468 146.04 472.346 131.919 472.346 114.562C472.346 97.2039 486.467 83.0833 503.825 83.0833C521.182 83.0833 535.303 97.2039 535.303 114.562C535.303 131.919 521.181 146.04 503.825 146.04ZM503.825 24.2284C517.515 24.2284 528.653 35.3666 528.653 49.0573C528.653 53.3454 527.607 58.4226 525.687 63.5563C518.973 60.6675 511.584 59.0616 503.825 59.0616C496.065 59.0616 488.676 60.6675 481.962 63.5563C480.041 58.4214 478.996 53.3454 478.996 49.0573C478.996 35.3666 490.134 24.2284 503.825 24.2284ZM433.853 117.933C420.833 113.703 413.681 99.6675 417.913 86.6471C422.142 73.6279 436.178 66.4775 449.198 70.7055C453.285 72.034 457.8 74.6044 462.097 78.0277C453.533 87.7978 448.324 100.579 448.324 114.562C448.324 116.258 448.413 117.933 448.563 119.592C443.085 119.832 437.933 119.259 433.853 117.933ZM450.728 187.644C439.652 179.596 437.187 164.039 445.234 152.963C447.758 149.491 451.59 145.996 456.168 142.97C463.842 155.796 476.544 165.272 491.532 168.674C490.069 173.958 487.93 178.681 485.409 182.151C477.362 193.227 461.804 195.692 450.728 187.644ZM522.242 182.151C519.72 178.68 517.581 173.957 516.118 168.673C531.106 165.269 543.807 155.795 551.481 142.969C556.057 145.994 559.891 149.49 562.415 152.962C570.463 164.038 567.998 179.596 556.922 187.643C545.845 195.692 530.288 193.227 522.242 182.151Z" fill="#9887BF"/>
<path d="M114.001 493.588C110.83 493.588 107.743 494.874 105.509 497.108C103.262 499.342 101.989 502.441 101.989 505.6C101.989 508.759 103.262 511.858 105.509 514.092C107.743 516.327 110.83 517.612 114.001 517.612C117.16 517.612 120.247 516.327 122.493 514.092C124.727 511.858 126.013 508.759 126.013 505.6C126.013 502.441 124.727 499.342 122.493 497.108C120.247 494.874 117.16 493.588 114.001 493.588Z" fill="#9887BF"/>
</g>
<defs>
<clipPath id="clip0">
<rect width="615" height="615" fill="white"/>
</clipPath>
</defs>
</svg>
