<svg width="135" height="77" viewBox="0 0 135 77" fill="none" xmlns="http://www.w3.org/2000/svg">
<path d="M53.2471 39.07V38.8402C53.2471 17.4659 72.22 1.49268 97.6391 1.49268C111.435 1.49268 122.592 5.58494 131.34 12.3458L116.282 28.5233C110.99 24.5268 105.125 22.2732 98.4565 22.2732C87.9949 22.2732 80.4014 29.4427 80.4014 39.1722V39.3765C80.4014 49.5082 88.3391 56.4733 99.6038 56.4733C104.207 56.4733 106.774 55.8349 108.803 54.8326V47.6695H94.9932V32.3092H133.972V65.507C125.238 71.8528 113.048 76.2579 98.4422 76.2579C73.3744 76.2324 53.2471 61.287 53.2471 39.07Z" fill="#0E101A" stroke="white" stroke-miterlimit="10"/>
<path d="M0 3.03125H45.0732C56.2304 3.03125 63.2431 5.27848 67.9612 9.4729C69.5854 10.9415 70.8601 12.6868 71.7089 14.6043C72.5578 16.5218 72.9635 18.5721 72.9016 20.6325V20.8368C72.9016 29.3341 67.1653 34.5564 58.5608 37.2186C68.9077 39.8808 75.5762 44.7966 75.5762 54.6219V54.8262C75.5762 66.3177 64.9998 74.6874 44.643 74.6874H0V3.03125ZM37.9458 31.1791C43.6822 31.1791 46.4571 29.4363 46.4571 26.2633V26.0718C46.4571 22.8797 43.589 21.156 37.8526 21.156H26.215V31.1791H37.9458ZM39.6739 56.569C45.5393 56.569 48.5294 54.4176 48.5294 51.3468V51.1425C48.5294 48.0717 45.6612 45.9202 39.7886 45.9202H26.215V56.5754L39.6739 56.569Z" fill="white"/>
</svg>
